<svg xmlns="http://www.w3.org/2000/svg" width="381" height="280.5" viewBox="0 0 100.806 74.216"><g transform="translate(-1887.881 -280.457)"><path d="m1935.093 333.765-.177.087a16.495 16.495 0 0 0-2.286 1.369c-.057.039-.113.08-.169.12a17.3 17.3 0 0 0-4.363 4.638c-.26.405-.502.823-.726 1.248q-.258.495-.486 1.007c-.57 1.294-1.077 2.771-2.2 3.564a2.826 2.826 0 0 1-.38.23l-.034.017a7.582 7.582 0 0 0-.329-2.143 5.919 5.919 0 0 0-.176-.507 6.925 6.925 0 0 0-.504-1.054 6.367 6.367 0 0 0-2.365-2.38 10.237 10.237 0 0 1-1.08 2.003c.327-.688.682-1.36 1.071-2.008a.388.388 0 0 1 .032-.052c.058-.1.12-.198.18-.297a16.166 16.166 0 0 1 3.533-4.075 11.78 11.78 0 0 1 3.212-1.834c2.302-.87 4.858-.994 7.08-.01.056.025.112.05.167.077z" fill="#f0f0f0" style="fill:#e2f6d3;fill-opacity:1;stroke-width:.138681"/><path d="m1935.07 333.84-.154.012a14.695 14.695 0 0 0-3.183.626l-.157.05a14.598 14.598 0 0 0-4.008 2.026l-.039.027q-.426.31-.83.652a6.294 6.294 0 0 0-1.327 1.472 3.52 3.52 0 0 0-.504 1.539c-.01.054-.01.11-.014.164 0 .044 0 .087-.01.131-.013.416.01.84-.033 1.254a3.089 3.089 0 0 1-.1.559 2.093 2.093 0 0 1-.554.93 2.343 2.343 0 0 1-.333.274 2.99 2.99 0 0 0-.061-.161 2.238 2.238 0 0 0 .327-.278 1.845 1.845 0 0 0 .417-.668 2.682 2.682 0 0 0 .134-.603c.047-.408.028-.827.037-1.233q0-.158.017-.312a3.697 3.697 0 0 1 .428-1.502 5.832 5.832 0 0 1 1.265-1.517 12.47 12.47 0 0 1 .99-.8c.044-.032.089-.066.135-.096a15 15 0 0 1 7.408-2.698c.05-.006.101-.008.152-.012.106-.008.097.157-.01.164z" fill="#fff" style="stroke-width:.138681"/><path d="M1927.422 336.55a2.203 2.203 0 0 1 .402-2.824c.08-.07.192.05.112.12a2.04 2.04 0 0 0-.368 2.627c.057.09-.09.165-.146.077zM1924.819 340.233a4.246 4.246 0 0 0 3.063-.437c.092-.052.168.094.076.146a4.416 4.416 0 0 1-3.189.448c-.103-.025-.053-.182.05-.157zM1931.713 334.43a1.247 1.247 0 0 0 .89.78c.104.023.054.18-.048.156a1.397 1.397 0 0 1-.987-.86.085.085 0 0 1 .035-.11.083.083 0 0 1 .11.034z" fill="#fff" style="stroke-width:.138681"/><path d="M1938.218 345.995c-.064-.012-.128-.025-.192-.035a16.168 16.168 0 0 0-2.647-.285c-.069-.003-.137-.006-.205-.006a17.273 17.273 0 0 0-6.276 1.076l-.01.003a16.62 16.62 0 0 0-2.318 1.07c-.795.442-1.613.962-2.462 1.264a4.455 4.455 0 0 1-.52.156c.042-.09.082-.18.12-.27a7.323 7.323 0 0 0 .528-2.073c.01-.06.013-.119.017-.18.018-.222.026-.446.024-.67a7.582 7.582 0 0 0-.329-2.142 5.844 5.844 0 0 0-.176-.508 6.925 6.925 0 0 0-.504-1.054 19.867 19.867 0 0 1 1.381-.495l.17-.053a16.182 16.182 0 0 1 2.556-.566 14.027 14.027 0 0 1 1.43-.119 11.789 11.789 0 0 1 3.658.468s.01 0 .01.003c2.363.69 4.478 2.13 5.66 4.254.032.054.06.107.09.163z" fill="#f0f0f0" style="fill:#e2f6d3;fill-opacity:1;stroke-width:.138681"/><path d="M1938.154 346.04a7.806 7.806 0 0 0-.128-.08 14.668 14.668 0 0 0-2.919-1.418 3.404 3.404 0 0 0-.155-.054 14.563 14.563 0 0 0-4.425-.796l-.047-.001q-.527-.01-1.052.02a6.281 6.281 0 0 0-1.944.377 3.513 3.513 0 0 0-1.328.926c-.04.04-.075.08-.11.122l-.085.103c-.379.47-.711.995-1.198 1.366a1.095 1.095 0 0 1-.087.06 1.978 1.978 0 0 1-.443.23c.01-.059.013-.118.017-.18a1.746 1.746 0 0 0 .293-.155c.05-.033.099-.068.146-.105.44-.341.753-.825 1.095-1.26.062-.078.125-.153.192-.227a3.66 3.66 0 0 1 1.256-.952 5.806 5.806 0 0 1 1.922-.45 12.515 12.515 0 0 1 1.27-.043q.083 0 .167.004a14.968 14.968 0 0 1 4.488.834 14.884 14.884 0 0 1 3.052 1.472l.13.082c.09.058-.017.183-.105.126z" fill="#fff" style="stroke-width:.138681"/><path d="M1930.416 343.6a2.203 2.203 0 0 1 2.021-2.012c.106-.008.123.155.017.163a2.04 2.04 0 0 0-1.876 1.876c-.01.106-.17.078-.162-.026zM1926.12 344.974a4.246 4.246 0 0 0 2.708 1.496c.105.013.078.176-.027.162a4.416 4.416 0 0 1-2.815-1.563c-.068-.081.066-.177.134-.095zM1935.118 344.492a1.247 1.247 0 0 0 .242 1.158c.069.08-.066.176-.134.096a1.397 1.397 0 0 1-.27-1.281.085.085 0 0 1 .094-.068.083.083 0 0 1 .068.095z" fill="#fff" style="stroke-width:.138681"/><path d="M1894.401 313.77c-2.144-3.05-2.893-7.29-1.088-10.552a17.178 17.178 0 0 0 7.922 8.737c1.386.722 3.004 1.382 3.619 2.82.382.894.28 1.936-.067 2.845-.348.909-.92 1.711-1.487 2.502l-.035.24c-3.408-1.511-6.72-3.541-8.864-6.592z" fill="#f0f0f0" style="fill:#e2f6d3;fill-opacity:1;stroke-width:.138681"/><path d="M1893.386 303.246a14.682 14.682 0 0 0 2.845 8.573 6.323 6.323 0 0 0 1.383 1.419 3.626 3.626 0 0 0 1.798.64c.601.058 1.223.048 1.8.25a2.22 2.22 0 0 1 1.297 1.271c.305.718.333 1.503.334 2.271 0 .853-.012 1.74.372 2.524.046.096-.104.162-.15.067-.667-1.366-.174-2.931-.557-4.359-.178-.666-.558-1.283-1.212-1.564-.572-.246-1.213-.236-1.822-.289a3.87 3.87 0 0 1-1.781-.56 5.845 5.845 0 0 1-1.433-1.36 14.244 14.244 0 0 1-2.136-3.907 14.943 14.943 0 0 1-.901-4.994c0-.106.162-.087.163.018z" fill="#fff" style="stroke-width:.138681"/><path d="M1895.596 311.053a2.203 2.203 0 0 1-2.792-.584c-.065-.083.062-.188.127-.104a2.04 2.04 0 0 0 2.599.538c.093-.051.159.1.067.15zM1899.104 313.89a4.246 4.246 0 0 0-.238-3.086c-.046-.095.104-.162.15-.066a4.416 4.416 0 0 1 .24 3.21c-.03.102-.183.042-.152-.059zM1893.758 306.634a1.247 1.247 0 0 0 .836-.838c.03-.102.183-.042.153.059a1.397 1.397 0 0 1-.922.93.085.085 0 0 1-.108-.043.083.083 0 0 1 .042-.108z" fill="#fff" style="stroke-width:.138681"/><path d="m1905.72 300.89-.05.193a16.42 16.42 0 0 0-.455 2.625c-.01.068-.014.138-.019.206a17.311 17.311 0 0 0 .671 6.338 16.811 16.811 0 0 0 .918 2.384c.506 1.063 1.138 2.176 1.26 3.311a2.884 2.884 0 0 1 .02.357l-4.504 4.082-.044.014-.173.17c-.022-.037-.043-.078-.065-.116l-.037-.068c-.01-.015-.016-.03-.024-.043 0-.005-.01-.01-.01-.014-.01-.013-.014-.027-.022-.039q-.182-.337-.36-.678l-.001-.003c-.9-1.735-1.664-3.56-2.127-5.444-.014-.056-.029-.114-.04-.172a16.042 16.042 0 0 1-.4-2.587 14.182 14.182 0 0 1-.027-1.435 11.793 11.793 0 0 1 .702-3.62c.842-2.317 2.416-4.339 4.614-5.383l.17-.078z" fill="#f0f0f0" style="fill:#e2f6d3;fill-opacity:1;stroke-width:.138681"/><path d="M1905.762 300.957a14.682 14.682 0 0 0-2.89 8.558 6.323 6.323 0 0 0 .25 1.965 3.626 3.626 0 0 0 1.05 1.594c.445.408.947.774 1.286 1.284a2.22 2.22 0 0 1 .271 1.795c-.19.757-.64 1.4-1.101 2.014-.513.682-1.056 1.382-1.223 2.24-.02.103-.18.066-.16-.038.29-1.491 1.626-2.445 2.18-3.815.26-.64.327-1.36-.027-1.979-.308-.54-.826-.918-1.28-1.327a3.87 3.87 0 0 1-1.085-1.52 5.845 5.845 0 0 1-.325-1.949 14.244 14.244 0 0 1 .646-4.405 14.943 14.943 0 0 1 2.288-4.53c.063-.085.182.029.12.113z" fill="#fff" style="stroke-width:.138681"/><path d="M1902.826 308.52a2.203 2.203 0 0 1-1.878-2.146.082.082 0 0 1 .164-.007 2.04 2.04 0 0 0 1.751 1.994c.105.015.067.175-.037.16zM1903.919 312.897a4.246 4.246 0 0 0 1.667-2.606c.021-.104.181-.067.16.037a4.416 4.416 0 0 1-1.74 2.709c-.086.062-.173-.078-.087-.14zM1904.02 303.886a1.247 1.247 0 0 0 1.17-.166c.085-.063.172.077.087.14a1.397 1.397 0 0 1-1.295.186.085.085 0 0 1-.061-.099.083.083 0 0 1 .099-.061z" fill="#fff" style="stroke-width:.138681"/><path d="M1924.687 345.798a8.099 8.099 0 0 0-.526-2.515 3.794 3.794 0 0 0-.067-.165 7.693 7.693 0 0 0-.45-.925 6.845 6.845 0 0 0-2.543-2.586l-.06-.033a6.472 6.472 0 0 0 .322-2.907c-.247-1.965-1.345-3.713-2.67-5.14-2.46-2.65-5.917-4.232-8.302-6.93a7.322 7.322 0 0 1-.093-.107c-.032-.036-.062-.074-.094-.111a11.056 11.056 0 0 1-.871-1.179 11.914 11.914 0 0 1-1.117-2.248 12.44 12.44 0 0 1-.276-.832q-.122-.412-.216-.832-.091-.414-.157-.832-.064-.414-.1-.832-.038-.416-.05-.832a12.89 12.89 0 0 1 .527-4.011 7.207 7.207 0 0 1 .085-.273c.013-.04.025-.08.04-.12.641-1.919 1.785-3.534 3.201-4.963.885-.893 1.84-1.718 2.759-2.58l.1-.094.105-.098a21.563 21.563 0 0 0 1.65-1.727 12.263 12.263 0 0 0 .837-1.112c.181-.269.35-.548.506-.832q.224-.408.409-.832c.118-.272.223-.55.313-.832a7.796 7.796 0 0 0 .218-.832 6.985 6.985 0 0 0 .12-.832.017.017 0 0 0 0-.008 5.562 5.562 0 0 0-1.195-3.968 2.781 2.781 0 0 0-.104-.126q-.052-.065-.108-.125a5.638 5.638 0 0 0-.596-.583c-2.276-1.927-5.256-2.253-8.015-3.116l-.132-.041-.137-.045a13.01 13.01 0 0 1-2.062-.857l-.024-.012a7.791 7.791 0 0 1-1.068-.688 6.559 6.559 0 0 1-.901-.832q-.106-.117-.204-.237c-.154-.188-.41.038-.327.237a.208.208 0 0 0 .033.058 6.767 6.767 0 0 0 .739.774 7.408 7.408 0 0 0 1.127.832 11.69 11.69 0 0 0 2.48 1.091l.137.045.135.041c1.67.52 3.44.852 5.024 1.443 1.198.446 2.405 1.065 3.313 1.981l.111.117c.038.039.073.079.11.12a5.27 5.27 0 0 1 .585.802 5.127 5.127 0 0 1 .652 3.097 6.794 6.794 0 0 1-.125.832 7.322 7.322 0 0 1-.23.832c-.083.251-.18.496-.287.738l-.043.094q-.198.43-.433.832c-.166.287-.345.563-.537.832a18.09 18.09 0 0 1-2.303 2.578l-.104.099-.098.094c-1.508 1.42-3.125 2.756-4.35 4.417a11.817 11.817 0 0 0-1.754 3.49c-.014.047-.029.092-.042.14a3.025 3.025 0 0 0-.042.138 13.297 13.297 0 0 0-.509 4.022c.01.277.022.555.047.832q.035.418.097.832a11.102 11.102 0 0 0 .152.832 12.572 12.572 0 0 0 .473 1.664 12.181 12.181 0 0 0 1.36 2.702c.21.312.435.61.673.897l.096.114.094.11c.946 1.09 2.074 2.016 3.233 2.883 3.056 2.284 6.912 4.632 7.67 8.707a6.037 6.037 0 0 1-.237 3.018 6.02 6.02 0 0 0-1.385-.448 7.112 7.112 0 0 0-4.362.613l-.124.062-.128.07a5.147 5.147 0 0 0-2.039 1.936 4.274 4.274 0 0 0-.356.832 4.212 4.212 0 0 0-.164.832 5.117 5.117 0 0 0-.02.397 3.526 3.526 0 0 0 .021.435 3.06 3.06 0 0 0 .212.832 2.308 2.308 0 0 0 .489.748c.029.029.058.058.089.084a2.382 2.382 0 0 0 2.198.487 3.644 3.644 0 0 0 .611-.218q.096-.041.188-.091c.06-.03.122-.064.183-.099a7.265 7.265 0 0 0 1.466-1.156 19.5 19.5 0 0 0 2.013-2.365q.133-.183.262-.37a10.237 10.237 0 0 0 1.08-2.003 6.367 6.367 0 0 1 2.366 2.38 6.925 6.925 0 0 1 .504 1.054 5.919 5.919 0 0 1 .176.508 7.582 7.582 0 0 1 .329 2.142c0 .224-.01.448-.024.67 0 .061-.01.12-.017.18a7.323 7.323 0 0 1-.529 2.074c-.038.09-.078.18-.119.269a8.994 8.994 0 0 1-3.35 3.748 9.65 9.65 0 0 1-2.402 1.099c-.256.077-.147.48.11.402 2.692-.813 5.091-2.81 6.162-5.405a7.761 7.761 0 0 0 .566-2.346v-.07c.01-.071.01-.14.012-.212.01-.217.01-.436 0-.656zm-5.392-3.81a19.144 19.144 0 0 1-1.97 2.34 8.035 8.035 0 0 1-1.063.92 4.483 4.483 0 0 1-.35.226 3.437 3.437 0 0 1-1.072.421 1.96 1.96 0 0 1-1.414-.25 1.817 1.817 0 0 1-.65-.701.73.73 0 0 1-.038-.074 2.499 2.499 0 0 1-.215-.758 3.275 3.275 0 0 1 0-.832 3.984 3.984 0 0 1 .146-.685c.015-.05.032-.099.048-.147a3.85 3.85 0 0 1 .413-.832 5.031 5.031 0 0 1 1.792-1.619 3.802 3.802 0 0 1 .248-.13 6.021 6.021 0 0 1 .952-.375 6.305 6.305 0 0 1 4.401.278 10.195 10.195 0 0 1-1.23 2.217z" fill="#e4e4e4" style="fill:#525252;fill-opacity:1;stroke-width:.138681"/><circle cx="1902.585" cy="286.836" r="6.241" fill="#fff" style="fill:#fff;fill-opacity:1;stroke:none;stroke-width:.138681;stroke-opacity:1"/><path d="M1902.585 280.457a6.38 6.38 0 1 0 5.482 9.637q.108-.179.204-.366a6.379 6.379 0 0 0-5.686-9.27zm0 12.481a6.107 6.107 0 1 1 5.417-3.296 5.36 5.36 0 0 1-.207.366 6.102 6.102 0 0 1-5.21 2.93z" fill="#e4e4e4" style="fill:#525252;fill-opacity:1;stroke-width:.138681"/><rect x="-1906.052" y="-285.588" width="6.934" height=".832" rx=".416" transform="scale(-1)" fill="#e4e4e4" style="stroke-width:.138681"/><rect x="-1906.052" y="-287.252" width="6.934" height=".832" rx=".416" transform="scale(-1)" fill="#e4e4e4" style="stroke-width:.138681"/><rect x="-1906.052" y="-288.917" width="6.934" height=".832" rx=".416" transform="scale(-1)" fill="#e4e4e4" style="stroke-width:.138681"/><circle cx="1907.578" cy="318.872" r="6.241" fill="#fff" style="stroke-width:.138681"/><path d="M1908.03 312.508a6.155 6.155 0 0 0-.432-.016h-.02a6.38 6.38 0 1 0 2.42 12.282c.133-.055.264-.115.393-.177a6.38 6.38 0 0 0-2.361-12.09zm-.452 12.466a6.102 6.102 0 0 1-.062-12.204h.062c.123 0 .245.004.367.011a6.102 6.102 0 0 1 2.26 11.598c-.131.062-.263.12-.397.172a6.057 6.057 0 0 1-2.23.423z" fill="#e4e4e4" style="fill:#525252;fill-opacity:1;stroke-width:.138681"/><rect x="-1911.045" y="-317.624" width="6.934" height=".832" rx=".416" transform="scale(-1)" fill="#e4e4e4" style="stroke-width:.138681"/><rect x="-1911.045" y="-319.288" width="6.934" height=".832" rx=".416" transform="scale(-1)" fill="#e4e4e4" style="stroke-width:.138681"/><rect x="-1911.045" y="-320.952" width="6.934" height=".832" rx=".416" transform="scale(-1)" fill="#e4e4e4" style="stroke-width:.138681"/><circle cx="1910.074" cy="343.696" r="6.241" fill="#fff" style="stroke-width:.138681"/><path d="M1915.172 339.867a6.342 6.342 0 0 0-.255-.32 6.377 6.377 0 1 0 1.159 6.308 6.05 6.05 0 0 0 .186-.607 6.368 6.368 0 0 0-1.09-5.381zm-5.098 9.93a6.102 6.102 0 1 1 4.59-10.117c.09.102.176.208.26.317a6.091 6.091 0 0 1 .987 5.477 5.827 5.827 0 0 1-.205.571 6.112 6.112 0 0 1-5.632 3.753z" fill="#e4e4e4" style="fill:#525252;fill-opacity:1;stroke-width:.138681"/><rect x="-1913.541" y="-342.448" width="6.934" height=".832" rx=".416" transform="scale(-1)" fill="#e4e4e4" style="stroke-width:.138681"/><rect x="-1913.541" y="-344.112" width="6.934" height=".832" rx=".416" transform="scale(-1)" fill="#e4e4e4" style="stroke-width:.138681"/><rect x="-1913.541" y="-345.776" width="6.934" height=".832" rx=".416" transform="scale(-1)" fill="#e4e4e4" style="stroke-width:.138681"/><circle cx="1917.84" cy="299.734" r="6.241" fill="#6c63ff" style="fill:#00a82e;fill-opacity:1;stroke-width:.138681"/><path d="M1917.84 293.354a6.414 6.414 0 0 0-.958.073c-.163.023-.32.054-.477.091a6.376 6.376 0 0 0-2.703 11.067c.107.09.215.177.327.26a6.378 6.378 0 1 0 3.811-11.49zm0 12.482a6.067 6.067 0 0 1-3.606-1.183 5.46 5.46 0 0 1-.33-.26 6.098 6.098 0 0 1 2.721-10.64 5.88 5.88 0 0 1 .469-.075 6.037 6.037 0 0 1 .746-.046 6.102 6.102 0 0 1 0 12.204z" fill="#e4e4e4" style="fill:#525252;fill-opacity:1;stroke-width:.138681"/><rect x="-1921.307" y="-298.486" width="6.934" height=".832" rx=".416" transform="scale(-1)" fill="#fff" style="stroke-width:.138681"/><rect x="-1921.307" y="-300.15" width="6.934" height=".832" rx=".416" transform="scale(-1)" fill="#fff" style="stroke-width:.138681"/><rect x="-1921.307" y="-301.814" width="6.934" height=".832" rx=".416" transform="scale(-1)" fill="#fff" style="stroke-width:.138681"/><path fill="#ffb6b6" d="m1953.8 352.51-1.6-.577 1.462-6.444 2.36.85z"/><path d="m1953.987 351.988-1.663-.6-1.078-.388a2.134 2.134 0 0 0-2.731 1.284l-.023.066 5.159 1.856.746-2.071z" fill="#2f2e41" style="stroke-width:.138681"/><path fill="#ffb6b6" d="m1979.27 350.232-1.467.86-4.015-5.248 2.165-1.27z"/><path d="m1979.363 349.534-.374.22-1.526.894-.988.58a2.132 2.132 0 0 0-.762 2.919l.035.06 4.73-2.773z" fill="#2f2e41" style="stroke-width:.138681"/><circle cx="1963.562" cy="294.508" r="3.403" fill="#ffb6b6" style="stroke-width:.138681"/><path d="m1964.878 299.134-.713.199-2.502 1.788-2.707 3.188s-.972 1.823-.608 3.888c.365 2.066 1.164 6.37 1.164 6.37s6.623-.046 6.866-.41c.243-.365.322-2.02.322-2.02l.973-10.816s-1.094-1.823-1.702-1.823a2.029 2.029 0 0 1-1.093-.364z" fill="#6c63ff" style="fill:#00a82e;fill-opacity:1;stroke-width:.138681"/><path d="M1966.517 314.018s-1.275.063-2.126.306c-.85.243-5.122 0-5.122 0l-2.29 9.114-4.469 25.666 3.467.694 6.102-18.584 3.051 5.825 9.57 10.54 2.634-1.664-7.904-12.482-1.757-9.51s1.58-5.346-.608-8.627z" fill="#2f2e41" style="fill:#1a1a1a;fill-opacity:1;stroke-width:.138681"/><path opacity=".2" style="isolation:isolate" transform="translate(1887.952 280.457) scale(.13868)" d="m540.339 244.452-9.191.479 17.953-65.322z"/><ellipse cx="1959.167" cy="314.573" rx=".693" ry=".832" fill="#2f2e41" style="stroke-width:.138681"/><path d="M1962.63 326.052a1.395 1.395 0 0 0-.182-2.13l1.357-4.766-2.456.774-.912 4.408a1.402 1.402 0 0 0 2.194 1.714z" fill="#ffb6b6" style="stroke-width:.138681"/><path d="M1965.36 299.794s1.637-.708 2.63 1.075c.994 1.784-.44 7.983-.64 8.989-.202 1.006-4.577 13.729-4.577 13.729l-2.358-.832z" fill="#6c63ff" style="fill:#00a82e;fill-opacity:1;stroke-width:.138681"/><path d="M1967.773 288.939a1.4 1.4 0 0 1 .045 1.476 1.228 1.228 0 0 0-2.274.842c-1.653-.723-2.46-1.1-4.179-.552a3.72 3.72 0 0 0-1.093.522 2.519 2.519 0 0 0-.97 2.357c1.044-.08.98.117 2.024.036l-.048-.11a4.526 4.526 0 0 1-.365 4.904 2.71 2.71 0 0 0-.391.564.654.654 0 0 0 .038.654.788.788 0 0 0 .382.233 2.508 2.508 0 0 0 3.21-1.684c-.024.543 0 1.19.463 1.479.264.166.598.158.91.144l2.457-.11c-.309-.179-.428-.579-.391-.934.037-.355.196-.684.327-1.016.727-1.845.176-3.8-.846-5.499.78.034 1.898-.834 1.982-1.61a1.61 1.61 0 0 0-1.28-1.696z" fill="#2f2e41" style="fill:#1a1a1a;fill-opacity:1;stroke-width:.138681"/><path fill="#cacaca" style="stroke-width:.138681;fill:#1a1a1a;fill-opacity:1" d="M1887.952 354.23h100.779v.311h-100.779z"/></g></svg>