<svg width="228" height="120" viewBox="0 0 60.325 31.75" xmlns="http://www.w3.org/2000/svg"><rect style="fill:#212d3a;fill-opacity:1;stroke:none;stroke-width:1.14753" width="60.292" height="31.717" x="-.01" y=".03" ry="0"/><path opacity=".6" d="M-.01.03h60.292V6.11H-.01Z" fill="#484f58" style="fill:#212d3a;fill-opacity:1;stroke-width:.264583;opacity:1"/><g style="fill:#2c3d4f;fill-opacity:1;stroke-width:.89377" transform="matrix(.99945 0 0 1.25253 -1003.795 -2723.648)"><rect style="fill:#2c3d4f;fill-opacity:1;stroke:none;stroke-width:.472952" width="12.223" height="1.996" x="1004.337" y="2182.823" ry=".998"/><path style="fill:#2c3d4f;fill-opacity:1;stroke:none;stroke-width:.472953" d="M1004.337 2182.823h5.111v1.996h-5.111z"/></g><rect style="fill:#23bdcd;fill-opacity:1;stroke:none;stroke-width:.529166" width="9.407" height="1.872" x="1.552" y="7.297" ry=".44"/><rect style="fill:#c6c9cc;fill-opacity:1;stroke:none;stroke-width:.529166" width="4.298" height=".793" x="3.108" y="11.255" ry=".397" rx="0"/><circle style="fill:#c6c9cc;fill-opacity:1;stroke:none;stroke-width:.529168" cx="1.949" cy="11.651" r=".397"/><circle style="fill:#23bdcd;fill-opacity:1;stroke:none;stroke-width:.529168" cx="10.126" cy="11.651" r=".397"/><rect style="fill:#c6c9cc;fill-opacity:1;stroke:none;stroke-width:.529166" width="4.298" height=".793" x="3.108" y="14.725" ry=".397" rx="0"/><circle style="fill:#c6c9cc;fill-opacity:1;stroke:none;stroke-width:.529168" cx="1.949" cy="15.121" r=".397"/><circle style="fill:#23bdcd;fill-opacity:1;stroke:none;stroke-width:.529168" cx="10.126" cy="15.121" r=".397"/><g transform="matrix(.99945 0 0 .99896 -1003.795 -2169.521)" style="stroke-width:1.00079"><rect style="fill:#c6c9cc;fill-opacity:1;stroke:none;stroke-width:.529587" width="4.3" height=".794" x="1007.458" y="2198.387" ry=".397" rx="0"/><circle style="fill:#c6c9cc;fill-opacity:1;stroke:none;stroke-width:.529589" cx="1006.298" cy="2198.784" r=".397"/></g><g transform="matrix(.99945 0 0 .99896 -1003.795 -2166.754)" style="stroke-width:1.00079"><rect style="fill:#c6c9cc;fill-opacity:1;stroke:none;stroke-width:.529587" width="4.3" height=".794" x="1007.458" y="2198.387" ry=".397" rx="0"/><circle style="fill:#c6c9cc;fill-opacity:1;stroke:none;stroke-width:.529589" cx="1006.298" cy="2198.784" r=".397"/></g><path opacity=".6" d="M60.282 6.109v25.638H12.868V6.11Z" fill="#484f58" style="fill:#212d3a;fill-opacity:1;stroke:#535d68;stroke-width:.0661458;stroke-opacity:1;opacity:1"/><g transform="matrix(.99945 0 0 .99896 -1002.822 -2169.633)" style="stroke-width:1.00079"><rect x="1006.903" y="2174.171" width="7.489" height="1.404" rx=".702" fill="#8b949e" style="fill:#c6c9cc;fill-opacity:1;stroke-width:.264794"/><circle style="fill:#23bdcd;fill-opacity:1;stroke:none;stroke-width:.529589" cx="1005.536" cy="2174.873" r=".661"/></g><rect style="fill:#c6c9cc;fill-opacity:1;stroke:none;stroke-width:.529166" width="4.298" height=".793" x="53.44" y="2.673" ry=".397" rx="0"/><path opacity=".6" d="M28.033 6.109v25.638H12.867V6.11Z" fill="#484f58" style="fill:#212d3a;fill-opacity:1;stroke:#535d68;stroke-width:.0661458;stroke-opacity:1;opacity:1"/><rect style="fill:#c6c9cc;fill-opacity:1;stroke:none;stroke-width:.529166" width="7.882" height=".793" x="13.696" y="8.405" ry=".397" rx="0"/><rect style="fill:#c6c9cc;fill-opacity:1;stroke:none;stroke-width:.529166" width="4.298" height=".793" x="13.696" y="6.901" ry=".397" rx="0"/><rect style="fill:#c6c9cc;fill-opacity:1;stroke:none;stroke-width:.529165" width="11.017" height=".793" x="13.696" y="12.191" ry=".397" rx="0"/><rect style="fill:#c6c9cc;fill-opacity:1;stroke:none;stroke-width:.529166" width="6.578" height=".793" x="13.696" y="15.977" ry=".397" rx="0"/><rect style="fill:#c6c9cc;fill-opacity:1;stroke:none;stroke-width:.529166" width="6.945" height=".528" x="14.633" y="9.586" ry=".265" rx="0"/><rect style="fill:#c6c9cc;fill-opacity:1;stroke:none;stroke-width:.529166" width="7.963" height=".528" x="14.633" y="10.441" ry=".265" rx="0"/><rect style="fill:#c6c9cc;fill-opacity:1;stroke:none;stroke-width:.529166" width="9.429" height=".528" x="14.633" y="13.331" ry=".265" rx="0"/><rect style="fill:#c6c9cc;fill-opacity:1;stroke:none;stroke-width:.529166" width="6.334" height=".528" x="14.633" y="14.185" ry=".265" rx="0"/><rect style="fill:#c6c9cc;fill-opacity:1;stroke:none;stroke-width:.529166" width="9.022" height=".528" x="14.633" y="17.075" ry=".265" rx="0"/><rect style="fill:#c6c9cc;fill-opacity:1;stroke:none;stroke-width:.529166" width="6.334" height=".528" x="14.633" y="17.93" ry=".265" rx="0"/><rect style="fill:#c6c9cc;fill-opacity:1;stroke:none;stroke-width:.529166" width="9.429" height=".528" x="14.633" y="18.785" ry=".265" rx="0"/><g transform="matrix(.99945 0 0 .99896 -1003.565 -2169.31)" style="fill:#c6c9cc;fill-opacity:1;stroke-width:1.00079"><rect style="fill:#c6c9cc;fill-opacity:1;stroke:none;stroke-width:.529586" width="11.023" height=".794" x="1042.828" y="2186.746" ry=".397" rx="0"/><g transform="translate(-.834)" style="fill:#c6c9cc;fill-opacity:1;stroke-width:1.00079"><rect style="opacity:.999;fill:#c6c9cc;fill-opacity:1;stroke:none;stroke-width:.529587" width="22.341" height=".529" x="1038.003" y="2188.809" ry=".265" rx="0"/><rect style="opacity:.999;fill:#c6c9cc;fill-opacity:1;stroke:none;stroke-width:.529587" width="15.008" height=".529" x="1041.669" y="2189.838" ry=".265" rx="0"/></g></g></svg>