<svg xmlns="http://www.w3.org/2000/svg" width="228" height="120" viewBox="0 0 60.325 31.75"><g transform="translate(-1004.356 -2171.828)"><rect style="fill:#1a1a1a;fill-opacity:1;stroke:none;stroke-width:1.14753" width="60.325" height="31.75" x="1004.337" y="2171.922" ry="0"/><path opacity=".6" d="M1004.337 2171.922h60.325v6.085h-60.325z" fill="#484f58" style="fill:#1a1a1a;fill-opacity:1;stroke-width:.264583"/><g style="fill:#2b2b2b;fill-opacity:1;stroke-width:.893059" transform="matrix(1 0 0 1.25383 0 -554.591)"><rect style="fill:#2b2b2b;fill-opacity:1;stroke:none;stroke-width:.472576" width="12.223" height="1.996" x="1004.337" y="2182.823" ry=".998"/><path style="fill:#2b2b2b;fill-opacity:1;stroke:none;stroke-width:.472577" d="M1004.337 2182.823h5.111v1.996h-5.111z"/></g><rect style="fill:#00a82e;fill-opacity:1;stroke:none;stroke-width:.529166" width="9.412" height="1.874" x="1005.901" y="2179.197" ry=".44"/><rect style="fill:#f7f7f7;fill-opacity:1;stroke:none;stroke-width:.529166" width="4.3" height=".794" x="1007.458" y="2183.159" ry=".397" rx="0"/><circle style="fill:#f7f7f7;fill-opacity:1;stroke:none;stroke-width:.529168" cx="1006.298" cy="2183.555" r=".397"/><circle style="fill:#00a82e;fill-opacity:1;stroke:none;stroke-width:.529168" cx="1014.48" cy="2183.555" r=".397"/><rect style="fill:#f7f7f7;fill-opacity:1;stroke:none;stroke-width:.529166" width="4.3" height=".794" x="1007.458" y="2186.633" ry=".397" rx="0"/><circle style="fill:#f7f7f7;fill-opacity:1;stroke:none;stroke-width:.529168" cx="1006.298" cy="2187.029" r=".397"/><circle style="fill:#00a82e;fill-opacity:1;stroke:none;stroke-width:.529168" cx="1014.48" cy="2187.029" r=".397"/><g transform="translate(0 .112)"><rect style="fill:#f7f7f7;fill-opacity:1;stroke:none;stroke-width:.529166" width="4.3" height=".794" x="1007.458" y="2198.387" ry=".397" rx="0"/><circle style="fill:#f7f7f7;fill-opacity:1;stroke:none;stroke-width:.529168" cx="1006.298" cy="2198.784" r=".397"/></g><g transform="translate(0 2.883)"><rect style="fill:#f7f7f7;fill-opacity:1;stroke:none;stroke-width:.529166" width="4.3" height=".794" x="1007.458" y="2198.387" ry=".397" rx="0"/><circle style="fill:#f7f7f7;fill-opacity:1;stroke:none;stroke-width:.529168" cx="1006.298" cy="2198.784" r=".397"/></g><path opacity=".6" d="M1064.662 2178.008v25.664h-47.44v-25.664z" fill="#484f58" style="opacity:1;fill:#fff;fill-opacity:1;stroke-width:.264583"/><g transform="translate(.974)"><rect x="1006.903" y="2174.171" width="7.489" height="1.404" rx=".702" fill="#8b949e" style="fill:#f7f7f7;fill-opacity:1;stroke-width:.264583"/><circle style="fill:#00a82e;fill-opacity:1;stroke:none;stroke-width:.529168" cx="1005.536" cy="2174.873" r=".661"/></g><rect style="fill:#f7f7f7;fill-opacity:1;stroke:none;stroke-width:.529166" width="4.3" height=".794" x="1057.816" y="2174.568" ry=".397" rx="0"/><path opacity=".6" d="M1032.395 2178.008v25.664h-15.173v-25.664z" fill="#484f58" style="opacity:1;fill:#f7f7f7;fill-opacity:1;stroke-width:.264583"/><rect style="fill:#1a1a1a;fill-opacity:1;stroke:none;stroke-width:.529166" width="7.886" height=".794" x="1018.051" y="2180.307" ry=".397" rx="0"/><rect style="fill:#1a1a1a;fill-opacity:1;stroke:none;stroke-width:.529166" width="4.3" height=".794" x="1018.051" y="2178.8" ry=".397" rx="0"/><rect style="fill:#1a1a1a;fill-opacity:1;stroke:none;stroke-width:.529165" width="11.023" height=".794" x="1018.051" y="2184.096" ry=".397" rx="0"/><rect style="fill:#1a1a1a;fill-opacity:1;stroke:none;stroke-width:.529166" width="6.582" height=".794" x="1018.051" y="2187.885" ry=".397" rx="0"/><rect style="fill:#1a1a1a;fill-opacity:1;stroke:none;stroke-width:.529166" width="6.949" height=".529" x="1018.988" y="2181.488" ry=".265" rx="0"/><rect style="fill:#1a1a1a;fill-opacity:1;stroke:none;stroke-width:.529166" width="7.967" height=".529" x="1018.988" y="2182.344" ry=".265" rx="0"/><rect style="fill:#1a1a1a;fill-opacity:1;stroke:none;stroke-width:.529166" width="9.434" height=".529" x="1018.988" y="2185.237" ry=".265" rx="0"/><rect style="fill:#1a1a1a;fill-opacity:1;stroke:none;stroke-width:.529166" width="6.337" height=".529" x="1018.988" y="2186.092" ry=".265" rx="0"/><rect style="fill:#1a1a1a;fill-opacity:1;stroke:none;stroke-width:.529166" width="9.027" height=".529" x="1018.988" y="2188.985" ry=".265" rx="0"/><rect style="fill:#1a1a1a;fill-opacity:1;stroke:none;stroke-width:.529166" width="6.337" height=".529" x="1018.988" y="2189.841" ry=".265" rx="0"/><rect style="fill:#1a1a1a;fill-opacity:1;stroke:none;stroke-width:.529166" width="9.434" height=".529" x="1018.988" y="2190.696" ry=".265" rx="0"/><g transform="translate(.23 .324)"><rect style="fill:#1a1a1a;fill-opacity:1;stroke:none;stroke-width:.529165" width="11.023" height=".794" x="1042.828" y="2186.746" ry=".397" rx="0"/><g transform="translate(-.834)"><rect style="opacity:.999;fill:#1a1a1a;fill-opacity:1;stroke:none;stroke-width:.529166" width="22.341" height=".529" x="1038.003" y="2188.809" ry=".265" rx="0"/><rect style="opacity:.999;fill:#1a1a1a;fill-opacity:1;stroke:none;stroke-width:.529166" width="15.008" height=".529" x="1041.669" y="2189.838" ry=".265" rx="0"/></g></g></g></svg>