<svg xmlns="http://www.w3.org/2000/svg" width="305" height="52" viewBox="0 0 80.698 13.758"><path style="fill:#1a1a1a;fill-opacity:1;stroke:none;stroke-width:.132292" d="M.01.008h80.698v13.758H.01z"/><path style="fill:#f7f7f7;fill-opacity:1;stroke:none;stroke-width:1.36835" d="M2440.642 46.813c-.329 0-.619.046-.87.138a3.12 3.12 0 0 0-.74.409l.23.724c.165-.118.33-.213.494-.285.17-.077.334-.116.493-.116.246 0 .413.054.5.162.088.108.131.246.131.416 0 .164-.05.346-.154.547-.097.2-.225.408-.385.624-.159.216-.341.436-.547.662-.2.22-.405.436-.616.647-.21.205-.413.4-.608.585l-.509.47-.108.516h3.081l.178-.847h-1.38l-.538.108v-.038l.454-.316c.22-.2.454-.426.7-.678.247-.252.473-.519.679-.801a4.99 4.99 0 0 0 .508-.863c.134-.298.2-.59.2-.878 0-.177-.026-.337-.079-.48a1.06 1.06 0 0 0-.236-.375.97.97 0 0 0-.374-.248 1.423 1.423 0 0 0-.504-.083zM2390.346 46.535v3.49c0 .477.038.874.115 1.19.085.308.205.554.359.74.162.184.358.311.589.38.239.078.512.116.82.116.231 0 .442-.025.633-.075.19-.05.36-.125.51-.225.301-.2.54-.45.717-.751h.057l.232.912h.635a6.313 6.313 0 0 1-.104-.774c-.015-.3-.023-.59-.023-.866v-4.137h-.924v3.86c-.062.17-.143.33-.243.485a1.8 1.8 0 0 1-.335.393 1.458 1.458 0 0 1-.427.277 1.552 1.552 0 0 1-.555.092c-.223 0-.408-.038-.555-.115a.853.853 0 0 1-.346-.335 1.802 1.802 0 0 1-.185-.566 6.054 6.054 0 0 1-.047-.798v-3.293zM2398.837 46.42c-.315 0-.577.073-.785.22a1.75 1.75 0 0 0-.52.6h-.046l-.173-.705h-.648v5.777h.925V48.27c.046-.278.165-.505.358-.682a.932.932 0 0 1 .34-.208c.131-.046.28-.07.446-.07.208 0 .427.04.658.116l.197-.89a2.836 2.836 0 0 0-.752-.115zM2386.453 46.397c-.409 0-.77.065-1.084.196-.313.131-.58.328-.8.59a2.567 2.567 0 0 0-.485.947 4.68 4.68 0 0 0-.162 1.294c0 .455.05.87.15 1.248.1.37.254.69.462.959.208.262.47.466.786.612.324.139.701.208 1.133.208.408 0 .768-.064 1.08-.193.312-.13.575-.323.79-.581.22-.262.385-.58.495-.956.11-.376.165-.808.165-1.297 0-.454-.05-.867-.15-1.236a2.586 2.586 0 0 0-.463-.959 1.967 1.967 0 0 0-.797-.612c-.316-.147-.689-.22-1.12-.22zm0 .809c.285 0 .527.061.727.185.2.115.362.273.486.473.123.2.211.435.265.705.062.27.093.555.093.855 0 .372-.033.697-.098.975-.066.278-.163.51-.294.694a1.232 1.232 0 0 1-.491.415 1.584 1.584 0 0 1-.688.134c-.285 0-.527-.061-.728-.184a1.462 1.462 0 0 1-.485-.486 2.324 2.324 0 0 1-.277-.704 4.285 4.285 0 0 1-.082-.844c0-.371.034-.697.099-.975s.163-.51.294-.694c.131-.185.295-.323.491-.415.196-.091.426-.136.688-.134zM2428.818 46.374c-.32 0-.601.037-.846.112a1.652 1.652 0 0 0-.62.338 1.41 1.41 0 0 0-.382.552 2.063 2.063 0 0 0-.127.754c0 .347.065.632.196.855.131.216.293.397.486.543.192.139.404.25.635.335.231.077.443.154.635.23.193.078.355.163.485.255a.432.432 0 0 1 .197.37c0 .2-.07.343-.208.428-.13.084-.308.127-.531.127-.308 0-.609-.046-.901-.139-.293-.1-.528-.2-.705-.3l-.416 1.12c.223.139.512.258.866.358.362.108.748.162 1.156.162.373 0 .7-.041.979-.124.279-.083.51-.207.696-.372.188-.17.33-.37.424-.601.094-.232.142-.493.142-.786 0-.339-.065-.616-.196-.832a1.658 1.658 0 0 0-.486-.52 2.63 2.63 0 0 0-.635-.335 121.79 121.79 0 0 0-.635-.231 2.837 2.837 0 0 1-.485-.243c-.131-.084-.197-.196-.197-.334 0-.174.056-.304.168-.39.111-.087.278-.13.502-.13.277 0 .551.038.82.115.27.077.493.15.67.22l.336-1.087c-.2-.115-.478-.219-.832-.311a4.718 4.718 0 0 0-1.19-.14zM2423.712 46.374c-.44 0-.829.063-1.17.19-.34.127-.632.318-.875.572a2.415 2.415 0 0 0-.546.953 4.414 4.414 0 0 0-.182 1.335c0 .474.054.897.162 1.27.108.374.27.698.485.971.108.135.231.253.37.354a2.1 2.1 0 0 0 .465.253c.34.135.744.202 1.21.202.447 0 .867-.062 1.26-.185.4-.13.716-.288.947-.473l-.497-.983c-.13.1-.323.201-.578.301a2.391 2.391 0 0 1-.843.139c-.254 0-.474-.031-.659-.093a1.067 1.067 0 0 1-.45-.277 1.283 1.283 0 0 1-.26-.46 2.342 2.342 0 0 1-.11-.637h3.466c.04-.2.066-.393.081-.578.023-.185.035-.358.035-.52 0-.447-.065-.82-.196-1.12-.131-.301-.304-.54-.52-.717a1.99 1.99 0 0 0-.74-.382 3.182 3.182 0 0 0-.855-.115zm-.023 1.202c.17 0 .315.028.439.083.123.056.223.14.3.252.08.111.138.247.17.407.033.16.042.344.027.552h-2.149c.02-.197.057-.373.113-.529.056-.156.13-.292.222-.407a.891.891 0 0 1 .364-.269c.147-.06.318-.09.514-.09zM2413.487 46.374c-.431 0-.814.066-1.15.2a2.262 2.262 0 0 0-.86.597c-.239.262-.418.58-.537.956-.12.376-.18.808-.18 1.297 0 .455.055.87.162 1.248.116.377.286.7.509.97.231.262.516.466.855.612.339.147.74.22 1.201.22.431 0 .814-.065 1.147-.196.333-.131.617-.327.852-.59a2.59 2.59 0 0 0 .537-.964c.12-.378.18-.81.18-1.3 0-.454-.059-.87-.174-1.248a2.523 2.523 0 0 0-.497-.959 2.217 2.217 0 0 0-.843-.624c-.34-.146-.74-.22-1.202-.22zm0 1.27c.212.001.393.042.543.125.15.083.27.207.358.373.09.161.156.35.2.563.044.214.066.453.066.72 0 .307-.024.574-.072.8-.048.224-.12.409-.217.551a.92.92 0 0 1-.364.32 1.163 1.163 0 0 1-.514.107 1.11 1.11 0 0 1-.543-.127 1.068 1.068 0 0 1-.358-.381 1.975 1.975 0 0 1-.208-.566 3.38 3.38 0 0 1-.07-.705c0-.316.027-.587.079-.814.052-.227.13-.41.233-.55a1.01 1.01 0 0 1 .373-.311c.144-.07.31-.104.494-.104zm21.046.817h1.048l.254 2.018.016.593h.023l.231-.608 1.055-2.003h1.071l-2.357 3.89h-.585zM2418.94 45.022l-1.502.428v1.085h-.797v1.272h.797v2.911c0 .312.031.58.093.806.062.225.155.407.278.546.127.135.289.235.485.303.196.067.427.101.693.101.285 0 .566-.034.843-.104.278-.07.52-.154.729-.254l-.266-1.155a2.605 2.605 0 0 1-.381.139c-.108.03-.24.046-.393.046a.581.581 0 0 1-.283-.064.431.431 0 0 1-.18-.19c-.077-.178-.115-.467-.115-.867v-2.218h1.41v-1.272h-1.41zM2377.984 44.225l2.669 4.876v3.211h.959V49.09l2.645-4.864h-1.028l-1.814 3.512-.208.728h-.011l-.196-.705-1.895-3.535zM2403.482 44.167v8.145h1.502v-4.216l-.185-1.272h.057l.636 1.272 3.038 4.274h1.156v-8.145h-1.502v4.251l.185 1.237h-.058l-.613-1.237-3.06-4.309z" transform="translate(-2361.216 -41.748)"/><path style="fill:#00a82e;fill-opacity:1;stroke-width:.0911089" d="M2417.183 54.21c-4.564.67-8.782.781-13.906-.63-.477-.131-.628.34-.145.473 4.584 1.262 8.661 1.465 12.833.894 4.648-.636 8.869-1.067 14.116-.024.485.096.429-.42-.055-.517-4.647-.923-8.694-.805-12.842-.196z" transform="translate(-2361.216 -41.748)"/><g style="fill:#00a82e;fill-opacity:1"><g style="fill:#00a82e;fill-opacity:1"><path style="fill:#00a82e;fill-opacity:1" d="m30.421 317.462 4.422-17.661-12.194-4.814-8.376 13.804s4.618 12.526-.511 22.539c.004.001 6.422-10.931 16.659-13.868zm-8.192-8.104c1.501-.615 3.231.087 3.851 1.561.625 1.474-.087 3.171-1.588 3.786-1.501.615-3.231-.087-3.851-1.561-.631-1.48.082-3.177 1.588-3.786zM158.353 112.621c-35.115 28.8-81.086 88.124-120.073 157.423l-.022-.027-6.815 12.026 7.267 2.796 3.84-10.117c20.799-37.491 77.224-135.4 180.397-200.451 0 0 38.411-22.877 76.256-54.516-9.214 7.702-27.391 17.356-37.247 23.584-25.868 16.344-57.79 31.704-103.603 69.282z" transform="matrix(.03803 0 0 .03803 -.425 .273)"/><path style="fill:#00a82e;fill-opacity:1" d="M33.2 215.365c-7.985 28.223-7.528 49.718-4.438 55.625h4.83c13.337-27.625 77.572-127.693 117.554-159.016 41.424-32.455 73.378-51.339 100.253-65.111 9.437-4.835 19.118-11.384 27.848-17.949 10.601-8.36 21.348-17.302 30.758-26.053L282.728 20.75 294.89 2.148l-23.22 23.611L286.78 0c-35.746 3.225-68.918 21.109-68.918 21.109-13.271 15.741-23.959 40.782-23.959 40.782-.37-12.521 8.11-31.481 8.11-31.481-6.266 2.861-30.073 16.459-30.073 16.459-11.645 9.66-15.262 35.06-15.262 35.06-2.214-10.019 5.526-29.333 5.526-29.333-33.543 19.32-57.502 52.231-57.502 52.231-16.584 32.553-2.948 57.953-8.11 51.872-5.162-6.081-4.052-28.261-4.052-28.261-35.017 33.63-38.699 49.724-38.699 49.724-5.896 14.31-11.058 52.59-11.058 52.59-3.318-3.579 0-23.611 0-23.611-8.479 17.889-4.422 34.701-4.422 34.701-4.052-1.435-5.161-26.477-5.161-26.477Z" transform="matrix(.03803 0 0 .03803 -.425 .273)"/><path style="fill:#00a82e;fill-opacity:1" d="M310.01 14.191s-13.483 13.065-30.758 26.053c-27.081 21.359-53.156 38.819-53.156 38.819C123.945 139.425 67.025 237.932 48.212 271.708h10.002c3.535-2.834 8.844-4.971 31.014-11.389 28.011-8.11 44.72-25.041 44.72-25.041s-25.553 14.31-37.595 12.88c-12.042-1.43-28.223 3.1-28.223 3.1s-6.179-2.861 24.291-7.392c30.47-4.531 80.596-38.634 80.596-38.634s-19.167 7.87-28.011 7.152c-8.844-.718-30.714 0-30.714 0 14.495-3.34 28.011-1.43 50.126-9.779s20.886-7.631 20.886-7.631c25.063-8.349 35.474-34.342 35.474-34.342-4.335 1.67-37.443 5.722-51.176 1.67-13.734-4.052-37.132 0-37.132 0 22.115-7.392 27.032-4.052 32.433-4.291 5.406-.239 22.855 1.191 57.502-10.731 34.647-11.922 44.475-26.711 44.475-26.711l-23.366 3.122c15.257-2.567 32.455-12.662 32.455-12.662-10.568 2.861-27.032 4.291-27.032 4.291 19.412-4.291 30.225-10.253 30.225-10.253 18.183-13.832 22.36-34.342 22.36-34.342-25.803 8.822-46.194 4.77-46.194 4.77 35.387-2.382 45.215-11.449 50.126-13.592 4.917-2.148 6.94-11.03 6.94-11.03-17.878 6.44-38.15 7.511-38.15 7.511 21.93-3.399 40.722-14.49 40.722-14.49V32.792c-8.479 4.83-23.399 8.588-23.399 8.588l23.219-15.023c1.305-7.516-4.776-12.166-4.776-12.166zM23.551 290.571l13.81 5.532 2.572-6.114-13.809-5.531zM177.036 285.458c-45.628 21.936-89.462 36.888-147.758 38.846-5.439.185-5.466 5.624 0 5.439 52.15-1.751 95.543-12.961 137.391-32.575 46.618-21.854 89.435-40.167 147.828-46.39 5.385-.577 3.095-5.814-2.252-5.243-51.714 5.516-93.731 19.984-135.209 39.923z" transform="matrix(.03803 0 0 .03803 -.425 .273)"/></g></g><path style="fill:#f7f7f7;fill-opacity:1;stroke:none;stroke-width:1.36835" d="m2434.533 48.461.755 3.89h.586l2.357-3.89h-1.07l-1.056 2.003-.231.608h-.023l-.016-.593-.254-2.018z" transform="translate(-2361.216 -41.748)"/></svg>