<svg xmlns="http://www.w3.org/2000/svg" width="228" height="120" viewBox="0 0 60.325 31.75"><g transform="matrix(.99945 0 0 .99896 -1402.765 -1340.772)" style="stroke-width:1.00079"><rect style="fill:#1b0b30;fill-opacity:1;stroke:none;stroke-width:1.14844" width="60.325" height="31.75" x="1403.527" y="1342.198" ry="0"/><path opacity=".6" d="M1403.527 1342.198h60.325v6.085h-60.325z" fill="#484f58" style="fill:#1b0b30;fill-opacity:1;stroke-width:.264794"/><g style="fill:#2b2b2b;fill-opacity:1;stroke-width:.89377" transform="matrix(1 0 0 1.25383 399.19 -1384.316)"><rect style="fill:#291442;fill-opacity:1;stroke:none;stroke-width:.472952" width="12.223" height="1.996" x="1004.337" y="2182.823" ry=".998"/><path style="fill:#291442;fill-opacity:1;stroke:none;stroke-width:.472953" d="M1004.337 2182.823h5.111v1.996h-5.111z"/></g><rect style="fill:#ff7aaf;fill-opacity:1;stroke:none;stroke-width:.529587" width="9.412" height="1.874" x="1405.09" y="1349.472" ry=".44"/><rect style="fill:#ff7aaf;fill-opacity:1;stroke:none;stroke-width:.529587" width="4.3" height=".794" x="1406.647" y="1353.435" ry=".397" rx="0"/><circle style="fill:#ff7aaf;fill-opacity:1;stroke:none;stroke-width:.529589" cx="1405.487" cy="1353.831" r=".397"/><circle style="fill:#fdc7bd;fill-opacity:1;stroke:none;stroke-width:.529589" cx="1413.669" cy="1353.831" r=".397"/><rect style="fill:#ff7aaf;fill-opacity:1;stroke:none;stroke-width:.529587" width="4.3" height=".794" x="1406.647" y="1356.908" ry=".397" rx="0"/><circle style="fill:#ff7aaf;fill-opacity:1;stroke:none;stroke-width:.529589" cx="1405.487" cy="1357.305" r=".397"/><circle style="fill:#fdc7bd;fill-opacity:1;stroke:none;stroke-width:.529589" cx="1413.669" cy="1357.305" r=".397"/><g transform="translate(399.19 -829.612)" style="stroke-width:1.00079"><rect style="fill:#ff7aaf;fill-opacity:1;stroke:none;stroke-width:.529587" width="4.3" height=".794" x="1007.458" y="2198.387" ry=".397" rx="0"/><circle style="fill:#ff7aaf;fill-opacity:1;stroke:none;stroke-width:.529589" cx="1006.298" cy="2198.784" r=".397"/></g><g transform="translate(399.19 -826.842)" style="stroke-width:1.00079"><rect style="fill:#ff7aaf;fill-opacity:1;stroke:none;stroke-width:.529587" width="4.3" height=".794" x="1007.458" y="2198.387" ry=".397" rx="0"/><circle style="fill:#ff7aaf;fill-opacity:1;stroke:none;stroke-width:.529589" cx="1006.298" cy="2198.784" r=".397"/></g><path opacity=".6" d="M1463.852 1348.283v25.665h-47.44v-25.665z" fill="#484f58" style="opacity:1;fill:#1b0b30;fill-opacity:1;stroke:#ff7aaf;stroke-width:.0661984;stroke-opacity:1"/><g transform="translate(400.163 -829.724)" style="stroke-width:1.00079"><rect x="1006.903" y="2174.171" width="7.489" height="1.404" rx=".702" fill="#8b949e" style="fill:#f7f7f7;fill-opacity:1;stroke-width:.264794"/><circle style="fill:#ff7aaf;fill-opacity:1;stroke:none;stroke-width:.529589" cx="1005.536" cy="2174.873" r=".661"/></g><rect style="fill:#fdc7bd;fill-opacity:1;stroke:none;stroke-width:.529587" width="4.3" height=".794" x="1457.006" y="1344.844" ry=".397" rx="0"/><path opacity=".6" d="M1431.585 1348.283v25.665h-15.174v-25.665z" fill="#484f58" style="opacity:1;fill:#1b0b30;fill-opacity:1;stroke:#ff7aaf;stroke-width:.0661984;stroke-opacity:1"/><rect style="fill:#fdc7bd;fill-opacity:1;stroke:none;stroke-width:.529587" width="7.886" height=".794" x="1417.241" y="1350.582" ry=".397" rx="0"/><rect style="fill:#fdc7bd;fill-opacity:1;stroke:none;stroke-width:.529587" width="4.3" height=".794" x="1417.241" y="1349.076" ry=".397" rx="0"/><rect style="fill:#fdc7bd;fill-opacity:1;stroke:none;stroke-width:.529586" width="11.023" height=".794" x="1417.241" y="1354.372" ry=".397" rx="0"/><rect style="fill:#fdc7bd;fill-opacity:1;stroke:none;stroke-width:.529587" width="6.582" height=".794" x="1417.241" y="1358.161" ry=".397" rx="0"/><rect style="fill:#fdc7bd;fill-opacity:1;stroke:none;stroke-width:.529587" width="6.949" height=".529" x="1418.178" y="1351.764" ry=".265" rx="0"/><rect style="fill:#fdc7bd;fill-opacity:1;stroke:none;stroke-width:.529587" width="7.967" height=".529" x="1418.178" y="1352.62" ry=".265" rx="0"/><rect style="fill:#fdc7bd;fill-opacity:1;stroke:none;stroke-width:.529587" width="9.434" height=".529" x="1418.178" y="1355.513" ry=".265" rx="0"/><rect style="fill:#fdc7bd;fill-opacity:1;stroke:none;stroke-width:.529587" width="6.337" height=".529" x="1418.178" y="1356.368" ry=".265" rx="0"/><rect style="fill:#fdc7bd;fill-opacity:1;stroke:none;stroke-width:.529587" width="9.027" height=".529" x="1418.178" y="1359.261" ry=".265" rx="0"/><rect style="fill:#fdc7bd;fill-opacity:1;stroke:none;stroke-width:.529587" width="6.337" height=".529" x="1418.178" y="1360.117" ry=".265" rx="0"/><rect style="fill:#fdc7bd;fill-opacity:1;stroke:none;stroke-width:.529587" width="9.434" height=".529" x="1418.178" y="1360.972" ry=".265" rx="0"/><g transform="translate(399.42 -829.4)" style="fill:#fdc7bd;fill-opacity:1;stroke-width:1.00079"><rect style="fill:#fdc7bd;fill-opacity:1;stroke:none;stroke-width:.529586" width="11.023" height=".794" x="1042.828" y="2186.746" ry=".397" rx="0"/><g transform="translate(-.834)" style="fill:#fdc7bd;fill-opacity:1;stroke-width:1.00079"><rect style="opacity:.999;fill:#fdc7bd;fill-opacity:1;stroke:none;stroke-width:.529587" width="22.341" height=".529" x="1038.003" y="2188.809" ry=".265" rx="0"/><rect style="opacity:.999;fill:#fdc7bd;fill-opacity:1;stroke:none;stroke-width:.529587" width="15.008" height=".529" x="1041.669" y="2189.838" ry=".265" rx="0"/></g></g></g></svg>