<svg width="21" height="21" viewBox="0 0 5.556 5.556" xmlns="http://www.w3.org/2000/svg"><path style="fill:none;stroke:#23bdcd;stroke-width:.393925;stroke-linecap:butt;stroke-linejoin:miter;stroke-opacity:1" d="m3.715 3.695 1.71 1.71"/><path style="fill:#23bdcd;stroke:none;stroke-width:.999999;fill-opacity:1" d="M8.469.012a8.438 8.438 0 0 0-.244.004 8.438 8.438 0 0 0-.254.01 8.438 8.438 0 0 0-.256.019 8.438 8.438 0 0 0-.254.027 8.438 8.438 0 0 0-.25.033 8.438 8.438 0 0 0-.252.043 8.438 8.438 0 0 0-.252.047 8.438 8.438 0 0 0-.248.059 8.438 8.438 0 0 0-.248.064 8.438 8.438 0 0 0-.242.073 8.438 8.438 0 0 0-.242.078 8.438 8.438 0 0 0-.24.088A8.438 8.438 0 0 0 5.25.65a8.438 8.438 0 0 0-.234.1 8.438 8.438 0 0 0-.235.11 8.438 8.438 0 0 0-.228.113 8.438 8.438 0 0 0-.223.123 8.438 8.438 0 0 0-.219.129 8.438 8.438 0 0 0-.216.134 8.438 8.438 0 0 0-.211.141 8.438 8.438 0 0 0-.211.15 8.438 8.438 0 0 0-.202.153 8.438 8.438 0 0 0-.199.16 8.438 8.438 0 0 0-.191.166 8.438 8.438 0 0 0-.192.172 8.438 8.438 0 0 0-.183.178 8.438 8.438 0 0 0-.176.183 8.438 8.438 0 0 0-.174.186 8.438 8.438 0 0 0-.166.195 8.438 8.438 0 0 0-.16.2 8.438 8.438 0 0 0-.154.2 8.438 8.438 0 0 0-.149.21 8.438 8.438 0 0 0-.142.21 8.438 8.438 0 0 0-.135.219 8.438 8.438 0 0 0-.129.219 8.438 8.438 0 0 0-.119.222 8.438 8.438 0 0 0-.12.229 8.438 8.438 0 0 0-.107.23 8.438 8.438 0 0 0-.101.235 8.438 8.438 0 0 0-.094.238 8.438 8.438 0 0 0-.086.238 8.438 8.438 0 0 0-.08.245 8.438 8.438 0 0 0-.072.244 8.438 8.438 0 0 0-.067.246 8.438 8.438 0 0 0-.056.25 8.438 8.438 0 0 0-.05.25 8.438 8.438 0 0 0-.042.25 8.438 8.438 0 0 0-.035.254 8.438 8.438 0 0 0-.028.254 8.438 8.438 0 0 0-.02.253 8.438 8.438 0 0 0-.009.254 8.438 8.438 0 0 0-.004.256 8.438 8.438 0 0 0 .004.244 8.438 8.438 0 0 0 .01.252 8.438 8.438 0 0 0 .02.256 8.438 8.438 0 0 0 .025.256 8.438 8.438 0 0 0 .035.254 8.438 8.438 0 0 0 .043.25 8.438 8.438 0 0 0 .049.25 8.438 8.438 0 0 0 .056.248 8.438 8.438 0 0 0 .065.248 8.438 8.438 0 0 0 .072.244 8.438 8.438 0 0 0 .08.24 8.438 8.438 0 0 0 .086.243 8.438 8.438 0 0 0 .094.236 8.438 8.438 0 0 0 .101.232 8.438 8.438 0 0 0 .108.233 8.438 8.438 0 0 0 .115.23 8.438 8.438 0 0 0 .121.223 8.438 8.438 0 0 0 .13.219 8.438 8.438 0 0 0 .134.216 8.438 8.438 0 0 0 .142.213 8.438 8.438 0 0 0 .149.21 8.438 8.438 0 0 0 .154.202 8.438 8.438 0 0 0 .158.2 8.438 8.438 0 0 0 .166.193 8.438 8.438 0 0 0 .174.188 8.438 8.438 0 0 0 .176.183 8.438 8.438 0 0 0 .182.178 8.438 8.438 0 0 0 .19.172 8.438 8.438 0 0 0 .192.168 8.438 8.438 0 0 0 .198.158 8.438 8.438 0 0 0 .205.154 8.438 8.438 0 0 0 .207.149 8.438 8.438 0 0 0 .213.142 8.438 8.438 0 0 0 .215.135 8.438 8.438 0 0 0 .22.129 8.438 8.438 0 0 0 .225.123 8.438 8.438 0 0 0 .225.115 8.438 8.438 0 0 0 .234.108 8.438 8.438 0 0 0 .234.101 8.438 8.438 0 0 0 .237.094 8.438 8.438 0 0 0 .24.086 8.438 8.438 0 0 0 .24.08 8.438 8.438 0 0 0 .246.072 8.438 8.438 0 0 0 .246.065 8.438 8.438 0 0 0 .25.058 8.438 8.438 0 0 0 .248.049 8.438 8.438 0 0 0 .252.043 8.438 8.438 0 0 0 .254.035 8.438 8.438 0 0 0 .254.028 8.438 8.438 0 0 0 .252.017 8.438 8.438 0 0 0 .256.012 8.438 8.438 0 0 0 .256.004 8.438 8.438 0 0 0 .244-.004 8.438 8.438 0 0 0 .256-.012 8.438 8.438 0 0 0 .254-.017 8.438 8.438 0 0 0 .254-.026 8.438 8.438 0 0 0 .252-.035 8.438 8.438 0 0 0 .251-.043 8.438 8.438 0 0 0 .25-.049 8.438 8.438 0 0 0 .249-.058 8.438 8.438 0 0 0 .248-.061 8.438 8.438 0 0 0 .244-.074 8.438 8.438 0 0 0 .242-.08 8.438 8.438 0 0 0 .238-.086 8.438 8.438 0 0 0 .238-.094 8.438 8.438 0 0 0 .235-.102 8.438 8.438 0 0 0 .232-.107 8.438 8.438 0 0 0 .133-.068l-1.12-1.12a6.949 6.949 0 0 1-.028.012 6.949 6.949 0 0 1-.205.082 6.949 6.949 0 0 1-.207.076 6.949 6.949 0 0 1-.21.067 6.949 6.949 0 0 1-.21.062 6.949 6.949 0 0 1-.217.055 6.949 6.949 0 0 1-.215.049 6.949 6.949 0 0 1-.217.043 6.949 6.949 0 0 1-.217.031 6.949 6.949 0 0 1-.218.027 6.949 6.949 0 0 1-.223.022 6.949 6.949 0 0 1-.219.014 6.949 6.949 0 0 1-.22.005 6.949 6.949 0 0 1-.094.002 6.949 6.949 0 0 1-.221-.003 6.949 6.949 0 0 1-.22-.012 6.949 6.949 0 0 1-.221-.018 6.949 6.949 0 0 1-.22-.023 6.949 6.949 0 0 1-.218-.031 6.949 6.949 0 0 1-.219-.04 6.949 6.949 0 0 1-.214-.044 6.949 6.949 0 0 1-.215-.053 6.949 6.949 0 0 1-.213-.059 6.949 6.949 0 0 1-.21-.066 6.949 6.949 0 0 1-.21-.07 6.949 6.949 0 0 1-.205-.08 6.949 6.949 0 0 1-.205-.086 6.949 6.949 0 0 1-.2-.09 6.949 6.949 0 0 1-.199-.1 6.949 6.949 0 0 1-.193-.105 6.949 6.949 0 0 1-.191-.11 6.949 6.949 0 0 1-.188-.117 6.949 6.949 0 0 1-.186-.121 6.949 6.949 0 0 1-.177-.129 6.949 6.949 0 0 1-.176-.133 6.949 6.949 0 0 1-.172-.14 6.949 6.949 0 0 1-.166-.145 6.949 6.949 0 0 1-.162-.15 6.949 6.949 0 0 1-.158-.155 6.949 6.949 0 0 1-.15-.162 6.949 6.949 0 0 1-.15-.164 6.949 6.949 0 0 1-.14-.168 6.949 6.949 0 0 1-.138-.176 6.949 6.949 0 0 1-.13-.177 6.949 6.949 0 0 1-.124-.182 6.949 6.949 0 0 1-.12-.187 6.949 6.949 0 0 1-.113-.188 6.949 6.949 0 0 1-.105-.193 6.949 6.949 0 0 1-.102-.196 6.949 6.949 0 0 1-.095-.2 6.949 6.949 0 0 1-.088-.204 6.949 6.949 0 0 1-.082-.205 6.949 6.949 0 0 1-.077-.207 6.949 6.949 0 0 1-.068-.211 6.949 6.949 0 0 1-.06-.21 6.949 6.949 0 0 1-.055-.216 6.949 6.949 0 0 1-.049-.215 6.949 6.949 0 0 1-.041-.216 6.949 6.949 0 0 1-.035-.22 6.949 6.949 0 0 1-.026-.218 6.949 6.949 0 0 1-.021-.22 6.949 6.949 0 0 1-.014-.22 6.949 6.949 0 0 1-.006-.22 6.949 6.949 0 0 1 0-.094 6.949 6.949 0 0 1 .002-.22 6.949 6.949 0 0 1 .012-.221 6.949 6.949 0 0 1 .018-.22 6.949 6.949 0 0 1 .021-.222 6.949 6.949 0 0 1 .033-.216 6.949 6.949 0 0 1 .04-.22 6.949 6.949 0 0 1 .044-.214 6.949 6.949 0 0 1 .053-.215 6.949 6.949 0 0 1 .059-.213 6.949 6.949 0 0 1 .064-.21 6.949 6.949 0 0 1 .072-.21 6.949 6.949 0 0 1 .08-.205 6.949 6.949 0 0 1 .085-.203 6.949 6.949 0 0 1 .093-.203 6.949 6.949 0 0 1 .098-.197 6.949 6.949 0 0 1 .103-.194 6.949 6.949 0 0 1 .112-.191 6.949 6.949 0 0 1 .117-.19 6.949 6.949 0 0 1 .121-.181 6.949 6.949 0 0 1 .13-.18 6.949 6.949 0 0 1 .134-.178 6.949 6.949 0 0 1 .14-.17 6.949 6.949 0 0 1 .143-.165 6.949 6.949 0 0 1 .15-.165 6.949 6.949 0 0 1 .157-.156 6.949 6.949 0 0 1 .158-.152 6.949 6.949 0 0 1 .166-.147 6.949 6.949 0 0 1 .17-.14 6.949 6.949 0 0 1 .172-.137 6.949 6.949 0 0 1 .18-.13 6.949 6.949 0 0 1 .18-.126 6.949 6.949 0 0 1 .186-.12 6.949 6.949 0 0 1 .192-.112 6.949 6.949 0 0 1 .191-.108 6.949 6.949 0 0 1 .198-.1 6.949 6.949 0 0 1 .199-.095 6.949 6.949 0 0 1 .203-.09 6.949 6.949 0 0 1 .205-.08 6.949 6.949 0 0 1 .207-.074 6.949 6.949 0 0 1 .209-.07 6.949 6.949 0 0 1 .213-.063 6.949 6.949 0 0 1 .215-.053 6.949 6.949 0 0 1 .215-.048 6.949 6.949 0 0 1 .216-.041 6.949 6.949 0 0 1 .217-.036 6.949 6.949 0 0 1 .219-.027 6.949 6.949 0 0 1 .223-.021 6.949 6.949 0 0 1 .22-.014 6.949 6.949 0 0 1 .219-.004V1.5a6.949 6.949 0 0 1 .094 0 6.949 6.949 0 0 1 .22.004 6.949 6.949 0 0 1 .221.012 6.949 6.949 0 0 1 .22.015 6.949 6.949 0 0 1 .22.026 6.949 6.949 0 0 1 .218.03 6.949 6.949 0 0 1 .22.04 6.949 6.949 0 0 1 .214.045 6.949 6.949 0 0 1 .215.053 6.949 6.949 0 0 1 .213.058 6.949 6.949 0 0 1 .21.065 6.949 6.949 0 0 1 .21.072 6.949 6.949 0 0 1 .207.08 6.949 6.949 0 0 1 .203.084 6.949 6.949 0 0 1 .199.094 6.949 6.949 0 0 1 .197.097 6.949 6.949 0 0 1 .198.104 6.949 6.949 0 0 1 .189.111 6.949 6.949 0 0 1 .187.115 6.949 6.949 0 0 1 .186.125 6.949 6.949 0 0 1 .178.127 6.949 6.949 0 0 1 .176.135 6.949 6.949 0 0 1 .171.139 6.949 6.949 0 0 1 .166.144 6.949 6.949 0 0 1 .163.15 6.949 6.949 0 0 1 .158.157 6.949 6.949 0 0 1 .15.158 6.949 6.949 0 0 1 .149.164 6.949 6.949 0 0 1 .14.172 6.949 6.949 0 0 1 .139.172 6.949 6.949 0 0 1 .129.18 6.949 6.949 0 0 1 .127.181 6.949 6.949 0 0 1 .117.186 6.949 6.949 0 0 1 .113.19 6.949 6.949 0 0 1 .108.193 6.949 6.949 0 0 1 .101.197 6.949 6.949 0 0 1 .094.2 6.949 6.949 0 0 1 .088.2 6.949 6.949 0 0 1 .082.207 6.949 6.949 0 0 1 .076.207 6.949 6.949 0 0 1 .066.21 6.949 6.949 0 0 1 .063.212 6.949 6.949 0 0 1 .055.213 6.949 6.949 0 0 1 .048.217 6.949 6.949 0 0 1 .041.217 6.949 6.949 0 0 1 .036.219 6.949 6.949 0 0 1 .025.218 6.949 6.949 0 0 1 .021.22 6.949 6.949 0 0 1 .014.222 6.949 6.949 0 0 1 .006.22 6.949 6.949 0 0 1 .002.092 6.949 6.949 0 0 1-.004.223 6.949 6.949 0 0 1-.012.219 6.949 6.949 0 0 1-.017.22 6.949 6.949 0 0 1-.022.22 6.949 6.949 0 0 1-.033.218 6.949 6.949 0 0 1-.037.217 6.949 6.949 0 0 1-.047.216 6.949 6.949 0 0 1-.053.215 6.949 6.949 0 0 1-.058.213 6.949 6.949 0 0 1-.065.211 6.949 6.949 0 0 1-.072.207 6.949 6.949 0 0 1-.08.21 6.949 6.949 0 0 1-.084.202 6.949 6.949 0 0 1-.092.2 6.949 6.949 0 0 1-.1.197 6.949 6.949 0 0 1-.103.197 6.949 6.949 0 0 1-.111.19 6.949 6.949 0 0 1-.117.187 6.949 6.949 0 0 1-.122.185 6.949 6.949 0 0 1-.128.18 6.949 6.949 0 0 1-.135.174 6.949 6.949 0 0 1-.139.17 6.949 6.949 0 0 1-.144.168 6.949 6.949 0 0 1-.15.162 6.949 6.949 0 0 1-.157.158 6.949 6.949 0 0 1-.158.153 6.949 6.949 0 0 1-.166.146 6.949 6.949 0 0 1-.147.125l1.057 1.057a8.438 8.438 0 0 0 .137-.12 8.438 8.438 0 0 0 .189-.171 8.438 8.438 0 0 0 .184-.178 8.438 8.438 0 0 0 .177-.184 8.438 8.438 0 0 0 .174-.187 8.438 8.438 0 0 0 .166-.194 8.438 8.438 0 0 0 .158-.197 8.438 8.438 0 0 0 .155-.203 8.438 8.438 0 0 0 .148-.209 8.438 8.438 0 0 0 .145-.21 8.438 8.438 0 0 0 .133-.218 8.438 8.438 0 0 0 .13-.218 8.438 8.438 0 0 0 .121-.227 8.438 8.438 0 0 0 .116-.227 8.438 8.438 0 0 0 .11-.232 8.438 8.438 0 0 0 .099-.234 8.438 8.438 0 0 0 .093-.237 8.438 8.438 0 0 0 .086-.238 8.438 8.438 0 0 0 .082-.242 8.438 8.438 0 0 0 .073-.244 8.438 8.438 0 0 0 .064-.248 8.438 8.438 0 0 0 .057-.248 8.438 8.438 0 0 0 .049-.25 8.438 8.438 0 0 0 .043-.254 8.438 8.438 0 0 0 .035-.252 8.438 8.438 0 0 0 .027-.254 8.438 8.438 0 0 0 .02-.254 8.438 8.438 0 0 0 .01-.256 8.438 8.438 0 0 0 .003-.254 8.438 8.438 0 0 0-.002-.244 8.438 8.438 0 0 0-.011-.254 8.438 8.438 0 0 0-.018-.256 8.438 8.438 0 0 0-.027-.252 8.438 8.438 0 0 0-.035-.254 8.438 8.438 0 0 0-.043-.252 8.438 8.438 0 0 0-.05-.248 8.438 8.438 0 0 0-.056-.25 8.438 8.438 0 0 0-.064-.246 8.438 8.438 0 0 0-.073-.246 8.438 8.438 0 0 0-.08-.24 8.438 8.438 0 0 0-.086-.24 8.438 8.438 0 0 0-.093-.238 8.438 8.438 0 0 0-.102-.235 8.438 8.438 0 0 0-.107-.232 8.438 8.438 0 0 0-.116-.227 8.438 8.438 0 0 0-.12-.224 8.438 8.438 0 0 0-.13-.22 8.438 8.438 0 0 0-.132-.218 8.438 8.438 0 0 0-.145-.213 8.438 8.438 0 0 0-.145-.205 8.438 8.438 0 0 0-.158-.205 8.438 8.438 0 0 0-.158-.197 8.438 8.438 0 0 0-.166-.196 8.438 8.438 0 0 0-.172-.187 8.438 8.438 0 0 0-.178-.182 8.438 8.438 0 0 0-.183-.181 8.438 8.438 0 0 0-.188-.168 8.438 8.438 0 0 0-.193-.166 8.438 8.438 0 0 0-.197-.164 8.438 8.438 0 0 0-.203-.153 8.438 8.438 0 0 0-.21-.15 8.438 8.438 0 0 0-.21-.139 8.438 8.438 0 0 0-.217-.138 8.438 8.438 0 0 0-.22-.125 8.438 8.438 0 0 0-.223-.125 8.438 8.438 0 0 0-.227-.116 8.438 8.438 0 0 0-.232-.11A8.438 8.438 0 0 0 11.7.657a8.438 8.438 0 0 0-.238-.095 8.438 8.438 0 0 0-.238-.088 8.438 8.438 0 0 0-.243-.077 8.438 8.438 0 0 0-.246-.074 8.438 8.438 0 0 0-.246-.066A8.438 8.438 0 0 0 10.241.2a8.438 8.438 0 0 0-.25-.049A8.438 8.438 0 0 0 9.74.107a8.438 8.438 0 0 0-.252-.033 8.438 8.438 0 0 0-.256-.03A8.438 8.438 0 0 0 8.98.028a8.438 8.438 0 0 0-.255-.011 8.438 8.438 0 0 0-.256-.004z" transform="scale(.26458)"/></svg>