<svg xmlns="http://www.w3.org/2000/svg" width="507" height="88" viewBox="0 0 134.144 23.283"><g style="fill:#f7f7f7;fill-opacity:1;stroke-width:.475995"><path style="fill:#f7f7f7;fill-opacity:1;stroke:none;stroke-width:.651327" d="M1101 1456.462c-.328 0-.618.046-.87.139a3.106 3.106 0 0 0-.74.408l.232.724c.164-.118.328-.213.493-.285.17-.077.333-.116.493-.116.246 0 .413.054.5.162.087.108.131.247.131.416 0 .164-.05.346-.154.547-.097.2-.226.408-.385.624a8.42 8.42 0 0 1-.547.662c-.2.22-.406.437-.616.647-.21.205-.413.4-.608.586l-.509.47-.108.516h3.081l.177-.848h-1.378l-.54.108v-.038l.455-.316c.22-.2.454-.426.7-.678a7.17 7.17 0 0 0 .679-.8 4.99 4.99 0 0 0 .508-.864c.134-.298.2-.59.2-.878 0-.177-.026-.336-.079-.479a1.06 1.06 0 0 0-.237-.375.97.97 0 0 0-.373-.249 1.427 1.427 0 0 0-.505-.083zM1050.705 1456.185v3.489c0 .477.038.874.115 1.19.085.308.205.555.359.74.161.184.358.311.589.38.238.078.512.116.82.116.23 0 .442-.025.632-.075.191-.05.361-.125.511-.225.3-.2.54-.45.717-.751h.057l.232.912h.635a6.316 6.316 0 0 1-.104-.774c-.015-.3-.023-.589-.023-.866v-4.136h-.924v3.859c-.062.17-.143.33-.243.485a1.8 1.8 0 0 1-.335.393 1.456 1.456 0 0 1-.427.277 1.544 1.544 0 0 1-.555.092c-.224 0-.408-.038-.555-.115a.853.853 0 0 1-.346-.336 1.802 1.802 0 0 1-.185-.566 6.052 6.052 0 0 1-.047-.797v-3.293zM1059.196 1456.07c-.316 0-.577.072-.785.219a1.75 1.75 0 0 0-.52.6h-.046l-.174-.704h-.647v5.777h.925v-4.044c.046-.277.165-.505.358-.682a.938.938 0 0 1 .34-.208c.131-.046.28-.07.445-.07.208 0 .428.04.66.117l.196-.89a2.837 2.837 0 0 0-.752-.115zM1046.812 1456.046c-.409 0-.77.065-1.084.196-.314.131-.58.328-.8.59a2.568 2.568 0 0 0-.485.947 4.68 4.68 0 0 0-.162 1.294c0 .455.05.87.15 1.248.1.37.254.69.462.959.208.262.47.466.786.612.324.139.701.208 1.132.208.409 0 .768-.064 1.08-.193.312-.13.576-.323.792-.581.22-.262.384-.58.494-.956.11-.376.164-.808.164-1.297 0-.454-.05-.867-.15-1.236a2.585 2.585 0 0 0-.462-.959 1.966 1.966 0 0 0-.797-.612c-.316-.147-.69-.22-1.12-.22zm0 .809c.284 0 .527.062.727.185.2.115.362.273.485.473.124.2.212.435.266.705.062.27.093.555.093.855 0 .372-.033.697-.098.975-.066.278-.164.51-.295.694a1.232 1.232 0 0 1-.49.415 1.591 1.591 0 0 1-.688.134c-.285 0-.528-.06-.728-.184a1.46 1.46 0 0 1-.485-.485 2.325 2.325 0 0 1-.278-.705 4.285 4.285 0 0 1-.08-.844c0-.371.032-.697.097-.975.066-.278.164-.51.295-.694.13-.185.294-.323.49-.415.197-.09.427-.136.689-.134zM1089.177 1456.023c-.32 0-.602.038-.846.113a1.65 1.65 0 0 0-.62.337c-.17.15-.297.335-.382.552a2.063 2.063 0 0 0-.127.754c0 .347.065.632.196.855.131.216.293.397.485.543.193.139.405.25.636.335.231.077.443.154.635.231.193.077.354.162.485.254a.432.432 0 0 1 .197.37c0 .2-.07.343-.208.428-.131.085-.308.127-.531.127-.308 0-.609-.046-.901-.139-.293-.1-.528-.2-.705-.3l-.416 1.12c.223.139.512.258.866.358.362.108.748.162 1.156.162.373 0 .7-.04.979-.124a1.79 1.79 0 0 0 .696-.372c.188-.17.33-.37.424-.601.094-.232.142-.493.142-.786 0-.339-.065-.616-.196-.832a1.658 1.658 0 0 0-.486-.52 2.628 2.628 0 0 0-.635-.335 99.251 99.251 0 0 0-.635-.231 2.83 2.83 0 0 1-.486-.243c-.13-.085-.196-.196-.196-.334 0-.174.056-.304.167-.39.112-.088.28-.13.503-.13.277 0 .55.038.82.115.27.077.493.15.67.22l.335-1.087c-.2-.115-.477-.219-.831-.311a4.738 4.738 0 0 0-1.19-.14zM1084.07 1456.023c-.438 0-.828.064-1.169.19-.34.128-.633.318-.875.573a2.415 2.415 0 0 0-.546.953 4.413 4.413 0 0 0-.182 1.334c0 .474.054.897.162 1.271.108.374.27.697.485.97.108.135.231.253.37.355a2.1 2.1 0 0 0 .465.252c.34.135.744.202 1.21.202.447 0 .867-.062 1.26-.185.4-.13.716-.288.947-.473l-.497-.982c-.13.1-.323.2-.578.3a2.4 2.4 0 0 1-.843.139 2.08 2.08 0 0 1-.659-.093 1.07 1.07 0 0 1-.45-.278 1.282 1.282 0 0 1-.26-.459 2.34 2.34 0 0 1-.11-.638h3.466c.039-.2.066-.393.08-.578.024-.185.036-.358.036-.52 0-.446-.065-.82-.196-1.12-.131-.3-.305-.54-.52-.717a1.99 1.99 0 0 0-.74-.38 3.182 3.182 0 0 0-.855-.117zm-.022 1.202c.17 0 .315.028.439.084a.72.72 0 0 1 .3.251c.08.112.137.247.17.407.033.16.042.344.027.552h-2.149c.019-.196.057-.373.113-.529.056-.156.13-.291.222-.407a.891.891 0 0 1 .364-.269 1.35 1.35 0 0 1 .514-.089zM1073.846 1456.023c-.431 0-.814.067-1.15.2a2.26 2.26 0 0 0-.86.597c-.239.262-.418.58-.538.956-.12.376-.178.808-.178 1.297 0 .455.054.87.161 1.248.116.377.285.7.509.97.23.262.516.466.855.613.338.146.739.22 1.201.22.431 0 .814-.066 1.147-.197.333-.131.617-.327.852-.59a2.59 2.59 0 0 0 .537-.964c.12-.378.179-.81.179-1.3 0-.454-.058-.87-.173-1.248a2.523 2.523 0 0 0-.497-.959 2.218 2.218 0 0 0-.844-.624c-.338-.146-.739-.22-1.201-.22zm0 1.271c.212 0 .393.041.543.124.15.083.27.207.358.373.09.161.155.35.2.563.044.214.066.454.066.72 0 .307-.024.574-.072.8-.048.224-.121.409-.217.551a.92.92 0 0 1-.364.32 1.166 1.166 0 0 1-.514.108c-.208 0-.39-.043-.543-.128a1.065 1.065 0 0 1-.359-.381 1.975 1.975 0 0 1-.207-.566 3.38 3.38 0 0 1-.07-.705c0-.316.027-.587.079-.814.052-.227.13-.41.233-.549a1.01 1.01 0 0 1 .373-.312c.144-.07.309-.104.494-.104zm21.046.816h1.048l.254 2.019.016.592h.023l.231-.608 1.055-2.002h1.071l-2.357 3.89h-.586zM1079.3 1454.671l-1.503.428v1.086H1077v1.27h.797v2.912c0 .312.031.58.093.806.062.225.154.407.278.546.127.135.289.235.485.303.196.067.427.101.693.101.285 0 .566-.034.843-.104.278-.069.52-.154.728-.254l-.265-1.155a2.56 2.56 0 0 1-.382.139 1.439 1.439 0 0 1-.392.046.585.585 0 0 1-.284-.063.43.43 0 0 1-.179-.191c-.077-.177-.115-.466-.115-.867v-2.218h1.41v-1.27h-1.41zM1038.343 1453.874l2.668 4.876v3.212h.96v-3.224l2.645-4.864h-1.028l-1.814 3.512-.208.728h-.011l-.197-.705-1.895-3.535zM1063.84 1453.816v8.145h1.503v-4.216l-.185-1.272h.057l.636 1.272 3.038 4.274h1.156v-8.145h-1.502v4.251l.185 1.237h-.058l-.613-1.237-3.061-4.309z" transform="matrix(2.10086 0 0 2.10086 -2181.433 -3054.236)"/><path style="fill:#f7f7f7;fill-opacity:1;stroke-width:.0433672" d="M1077.542 1463.86c-4.564.669-8.782.78-13.906-.631-.478-.131-.628.34-.146.473 4.584 1.262 8.662 1.465 12.834.894 4.648-.636 8.869-1.067 14.116-.024.484.096.428-.42-.055-.517-4.647-.923-8.694-.805-12.843-.196z" transform="matrix(2.10086 0 0 2.10086 -2181.433 -3054.236)"/><path style="fill:#f7f7f7;fill-opacity:1;stroke:none;stroke-width:.651327" d="m1094.892 1458.11.755 3.89h.586l2.357-3.89h-1.071l-1.055 2.003-.231.608h-.023l-.016-.593-.254-2.017z" transform="matrix(2.10086 0 0 2.10086 -2181.433 -3054.236)"/></g></svg>