<svg viewBox="0 0 752 336" style="enable-background:new 0 0 752 336" xml:space="preserve" version="1.1" id="svg8" xmlns="http://www.w3.org/2000/svg"><style id="style2">.st0{fill:#fff}</style><g id="Layer_1" style="fill:#23bccd;fill-opacity:1"><path id="icon_1_" class="st0" d="M69.6 212.9 87 101.4c.6-3.8 5.7-4.7 7.5-1.3l18.7 35-43.6 77.8zM193.3 240l-16.6-102.7c-.5-3.2-4.5-4.5-6.8-2.2L65.3 240l57.9 32.5c3.6 2 8.1 2 11.7 0l58.4-32.5zm-47-89.6-13.4-25.5c-1.5-2.9-5.6-2.9-7.1 0l-58.9 105 79.4-79.5z" style="fill:#23bccd;fill-opacity:1"/><path class="st0" d="M257.3 236h-11.8v-91.6H299v11.3h-41.7v30.1H295v11h-37.6V236zm62-78.4c-1.6 1.6-3.6 2.4-5.9 2.4-2.3 0-4.3-.8-5.9-2.4-1.6-1.6-2.4-3.6-2.4-5.9s.8-4.3 2.4-5.9c1.6-1.6 3.6-2.4 5.9-2.4 2.3 0 4.3.8 5.9 2.4 1.6 1.6 2.4 3.6 2.4 5.9s-.8 4.2-2.4 5.9zm0 78.4h-11.8v-62.7h11.8V236zm24.6 0h-11.8v-62.7h11.3v10.2h.5c1.2-3.4 3.6-6.2 7.4-8.4 3.7-2.2 7.3-3.3 10.8-3.3 3.5 0 6.4.5 8.8 1.5l-4.5 11c-1.5-.6-3.6-.9-6.3-.9-4.3 0-8 1.7-11.3 5.1-3.3 3.4-4.9 7.8-4.9 13.2V236zm55.4 2.1c-9.5 0-17.2-3.2-23.1-9.5-5.9-6.3-8.9-14.3-8.9-23.9 0-9.1 2.9-17 8.6-23.6 5.8-6.6 13.1-9.9 22.1-9.9 9.3 0 16.7 3 22.3 9.1 5.6 6.1 8.4 14.2 8.4 24.3l-.1 2.2h-49.5c.3 6.3 2.5 11.3 6.3 15 3.9 3.7 8.4 5.5 13.6 5.5 8.4 0 14.2-3.6 17.2-10.8l10.5 4.4c-2 4.9-5.4 8.9-10.1 12.2s-10.5 5-17.3 5zm16.9-41c-.3-3.6-1.9-7-4.9-10.2-3-3.2-7.5-4.9-13.5-4.9-4.4 0-8.1 1.4-11.3 4.1-3.2 2.7-5.4 6.4-6.6 11h36.3zm53.9 41c-4.8 0-9.1-1-12.9-3.1-3.8-2-6.6-4.6-8.5-7.7h-.5v8.7h-11.3v-91.6h11.8v28.9l-.5 8.7h.5c1.9-3.1 4.7-5.6 8.5-7.7 3.8-2 8.1-3.1 12.9-3.1 8.1 0 15.1 3.2 21 9.6s8.8 14.3 8.8 23.8-2.9 17.4-8.8 23.8c-5.9 6.5-12.9 9.7-21 9.7zm-2-10.8c5.5 0 10.2-2.1 14.1-6.2 3.9-4.1 5.9-9.6 5.9-16.4 0-6.8-2-12.3-5.9-16.4-3.9-4.1-8.6-6.2-14.1-6.2s-10.3 2-14.1 6.1-5.8 9.6-5.8 16.5 1.9 12.4 5.8 16.5 8.6 6.1 14.1 6.1zm61.1 10.8c-6.7 0-12.2-1.9-16.7-5.8-4.5-3.8-6.7-8.9-6.7-15.2 0-6.8 2.6-12.2 7.9-16.1 5.3-3.9 11.8-5.8 19.6-5.8 6.9 0 12.6 1.3 17 3.8v-1.8c0-4.6-1.6-8.3-4.7-11.1-3.2-2.8-7-4.2-11.6-4.2-3.4 0-6.5.8-9.3 2.4-2.8 1.6-4.7 3.8-5.7 6.7l-10.8-4.6c1.5-3.8 4.3-7.2 8.6-10.4s9.9-4.8 16.9-4.8c8 0 14.7 2.3 20 7 5.3 4.7 7.9 11.3 7.9 19.8v38h-11.3v-8.7h-.5c-4.7 7.2-11.6 10.8-20.6 10.8zm1.9-10.8c4.9 0 9.3-1.8 13.2-5.4 4-3.6 6-7.9 6-12.9-3.3-2.7-8.3-4.1-15-4.1-5.7 0-10 1.2-12.9 3.7-2.9 2.5-4.4 5.4-4.4 8.7 0 3.1 1.3 5.5 4 7.3 2.7 1.8 5.7 2.7 9.1 2.7zm63.2 10.8c-7 0-12.8-1.7-17.3-5.1-4.6-3.4-7.9-7.7-10-12.8l10.5-4.4c3.3 7.9 9 11.8 17 11.8 3.7 0 6.7-.8 9-2.4 2.3-1.6 3.5-3.8 3.5-6.4 0-4.1-2.9-6.9-8.6-8.3l-12.7-3.1c-4-1-7.8-3-11.4-5.8-3.6-2.9-5.4-6.7-5.4-11.6 0-5.5 2.5-10 7.4-13.5s10.7-5.2 17.5-5.2c5.5 0 10.5 1.3 14.8 3.8 4.4 2.5 7.5 6.1 9.3 10.8l-10.2 4.2c-2.3-5.5-7.1-8.3-14.3-8.3-3.5 0-6.4.7-8.8 2.2-2.4 1.5-3.6 3.4-3.6 5.9 0 3.6 2.8 6 8.3 7.3l12.4 2.9c5.9 1.4 10.2 3.7 13.1 7 2.8 3.3 4.2 7.1 4.2 11.3 0 5.6-2.3 10.3-6.9 14.1s-10.5 5.6-17.8 5.6zm61.5 0c-9.5 0-17.2-3.2-23.1-9.5-5.9-6.3-8.9-14.3-8.9-23.9 0-9.1 2.9-17 8.6-23.6 5.8-6.6 13.1-9.9 22.1-9.9 9.3 0 16.7 3 22.3 9.1 5.6 6.1 8.4 14.2 8.4 24.3l-.1 2.2h-49.5c.3 6.3 2.5 11.3 6.3 15 3.9 3.7 8.4 5.5 13.6 5.5 8.4 0 14.2-3.6 17.2-10.8l10.5 4.4c-2 4.9-5.4 8.9-10.1 12.2-4.7 3.3-10.5 5-17.3 5zm16.9-41c-.3-3.6-1.9-7-4.9-10.2-3-3.2-7.5-4.9-13.5-4.9-4.4 0-8.1 1.4-11.3 4.1-3.2 2.7-5.4 6.4-6.6 11h36.3zm-428-87.9v-43h15.5c3.4 0 6.3 1.1 8.7 3.3 2.5 2.2 3.7 5 3.7 8.4 0 2-.5 3.8-1.6 5.4-1.1 1.6-2.5 2.7-4.2 3.5v.2c2.1.7 3.9 2 5.2 3.7 1.4 1.8 2 3.8 2 6.1 0 3.5-1.3 6.4-3.9 8.8-2.6 2.3-5.6 3.5-9.1 3.5h-16.3zm5.5-24.5h10c2.1 0 3.8-.7 5-2.1 1.3-1.4 1.9-2.9 1.9-4.5s-.6-3.1-1.8-4.5c-1.2-1.4-2.8-2-4.8-2h-10.3v13.1zm0 19.3h11.1c2.1 0 3.8-.7 5.2-2.2 1.3-1.5 2-3.1 2-4.9 0-1.8-.7-3.4-2-4.8-1.4-1.5-3.1-2.2-5.3-2.2h-10.9V104zm56.3 5.2h-5.3v-4.1h-.2c-.8 1.4-2.1 2.6-3.8 3.6-1.7 1-3.5 1.5-5.5 1.5-3.7 0-6.5-1.1-8.4-3.4-1.9-2.2-2.9-5.2-2.9-9v-18h5.5v17.1c0 5.5 2.4 8.2 7.3 8.2 2.3 0 4.1-.9 5.6-2.8 1.4-1.8 2.2-4 2.2-6.4V79.8h5.5v29.4zm13.4-36.7c-.8.8-1.7 1.1-2.8 1.1s-2-.4-2.8-1.1c-.8-.8-1.1-1.7-1.1-2.8s.4-2 1.1-2.8c.8-.8 1.7-1.1 2.8-1.1s2 .4 2.8 1.1c.8.8 1.1 1.7 1.1 2.8s-.4 2-1.1 2.8zm0 36.7h-5.5V79.8h5.5v29.4zm13.3 0h-5.5v-43h5.5v43zm19.7.5c-3.1 0-5.4-.8-7-2.5-1.6-1.6-2.4-4-2.4-7V84.9h-5.2v-5h5.2v-9h5.5v9h7.2v5H349v15c0 3.2 1.3 4.8 4 4.8 1 0 1.8-.2 2.5-.5l1.9 4.7c-1.3.6-2.8.8-4.5.8zm57.4-.5h-5.6l-7.3-22.6-7.3 22.6h-5.6L375 79.8h5.8l6.5 22.2h.1l7.3-22.2h5.7l7.3 22.2h.1l6.5-22.2h5.6l-9.6 29.4zm19.8-36.7c-.8.8-1.7 1.1-2.8 1.1s-2-.4-2.8-1.1c-.8-.8-1.1-1.7-1.1-2.8s.4-2 1.1-2.8c.8-.8 1.7-1.1 2.8-1.1s2 .4 2.8 1.1c.8.8 1.1 1.7 1.1 2.8s-.4 2-1.1 2.8zm0 36.7h-5.5V79.8h5.5v29.4zm19.9.5c-3.1 0-5.4-.8-7.1-2.5-1.6-1.6-2.4-4-2.4-7V84.9h-5.2v-5h5.2v-9h5.5v9h7.2v5H446v15c0 3.2 1.3 4.8 4 4.8 1 0 1.8-.2 2.5-.5l1.9 4.7c-1.2.6-2.6.8-4.4.8zm14.7-43.4v13.6l-.2 4.1h.2c.8-1.4 2.1-2.6 3.8-3.6 1.7-1 3.6-1.5 5.5-1.5 3.6 0 6.4 1.1 8.3 3.4 1.9 2.2 2.9 5.2 2.9 9v18h-5.5V92.1c0-5.4-2.4-8.2-7.3-8.2-2.3 0-4.1.9-5.6 2.7-1.4 1.8-2.2 3.9-2.2 6.3v16.3h-5.5v-43h5.6z" id="path5" style="fill:#23bccd;fill-opacity:1"/></g></svg>